<svg xmlns="http://www.w3.org/2000/svg" xmlns:xlink="http://www.w3.org/1999/xlink" viewBox="0 0 247.3 43.24"><defs><style>.cls-1{fill:#fff;}.cls-2{fill:#e6e7e8;}.cls-3{fill:url(#linear-gradient);}.cls-4{fill:url(#linear-gradient-2);}.cls-5{fill:url(#linear-gradient-3);}.cls-6{fill:url(#linear-gradient-4);}.cls-7{fill:url(#linear-gradient-5);}</style><linearGradient id="linear-gradient" x1="4.39" y1="20.18" x2="18.35" y2="20.18" gradientTransform="matrix(1, 0, 0, -1, 0, 45.24)" gradientUnits="userSpaceOnUse"><stop offset="0.11" stop-color="#e6e7e8"/><stop offset="0.42" stop-color="#efeff0" stop-opacity="0.66"/><stop offset="1" stop-color="#fff" stop-opacity="0"/></linearGradient><linearGradient id="linear-gradient-2" x1="4.39" y1="13.31" x2="18.35" y2="13.31" gradientTransform="matrix(1, 0, 0, -1, 0, 45.24)" gradientUnits="userSpaceOnUse"><stop offset="0.11" stop-color="#e6e7e8"/><stop offset="0.24" stop-color="#e9eaeb" stop-opacity="0.87"/><stop offset="0.54" stop-color="#f1f2f2" stop-opacity="0.55"/><stop offset="0.97" stop-color="#fefefe" stop-opacity="0.04"/><stop offset="1" stop-color="#fff" stop-opacity="0"/></linearGradient><linearGradient id="linear-gradient-3" x1="4.32" y1="5" x2="19.03" y2="19.7" gradientTransform="matrix(1, 0, 0, -1, 0, 45.24)" gradientUnits="userSpaceOnUse"><stop offset="0" stop-color="#fff" stop-opacity="0"/><stop offset="0.19" stop-color="#ebeced" stop-opacity="0.1"/><stop offset="0.46" stop-color="#b2b8ba" stop-opacity="0.37"/><stop offset="0.78" stop-color="#566367" stop-opacity="0.81"/><stop offset="0.89" stop-color="#2e3e44"/></linearGradient><linearGradient id="linear-gradient-4" x1="20.5" y1="23.61" x2="40.27" y2="23.61" gradientTransform="matrix(1, 0, 0, -1, 0, 45.24)" gradientUnits="userSpaceOnUse"><stop offset="0" stop-color="#070030"/><stop offset="0.21" stop-color="#2c18b8"/><stop offset="1" stop-color="#00c0ff"/></linearGradient><linearGradient id="linear-gradient-5" x1="11.9" y1="23.62" x2="22.31" y2="23.62" gradientTransform="matrix(1, 0, 0, -1, 0, 45.24)" gradientUnits="userSpaceOnUse"><stop offset="0.45" stop-color="#dbe3e5"/><stop offset="0.58" stop-color="#c2ccd3"/><stop offset="0.8" stop-color="#909dae"/><stop offset="1" stop-color="#58595b"/></linearGradient></defs><g id="Layer_2" data-name="Layer 2"><g id="Layer_1-2" data-name="Layer 1"><path class="cls-1" d="M63.92,28.07V8.42H58.16v25.2H72.92V28.07Zm16-1.29H92.71a10.84,10.84,0,0,0,.21-2.16c0-5.44-3.89-9.51-9.14-9.51a9.23,9.23,0,0,0-9.58,9.51c0,5.36,3.82,9.5,10,9.5A9.13,9.13,0,0,0,92,30.41L87.7,27.93a4.7,4.7,0,0,1-3.45,1.37C82.27,29.3,80.61,28.65,79.93,26.78Zm-.11-4a4.05,4.05,0,0,1,7.74,0Zm29.06-7.13v1.69a6.78,6.78,0,0,0-5.37-2.2c-4.71,0-8.6,4.14-8.6,9.51s3.89,9.5,8.6,9.5a6.8,6.8,0,0,0,5.37-2.19v1.69h5.4v-18ZM104.59,29a4.11,4.11,0,0,1-4.28-4.39,4.29,4.29,0,1,1,8.57,0A4.11,4.11,0,0,1,104.59,29Zm19-10.19v-3.2h-5.4v18h5.4V25.48c0-3.56,3.17-4.46,5.4-4.1V15.26A5.4,5.4,0,0,0,123.64,18.82Zm25.2,14.8-6.73-9,6.55-9h-6.3L137,23.5V8.42h-5.4v25.2H137v-8l5.76,8Zm12.54-18.51a6.16,6.16,0,0,0-5.15,2.2V15.62h-5.4v18h5.4V23.79c0-2.56,1.37-3.71,3.35-3.71a3,3,0,0,1,3.13,3.28V33.62h5.4v-11C168.11,17.71,165,15.11,161.38,15.11Zm13.5,19a3.42,3.42,0,1,0-3.42-3.42A3.44,3.44,0,0,0,174.88,34.12Zm14.22,0a9.19,9.19,0,0,0,8.14-4.64l-4.72-2.7a3.67,3.67,0,0,1-3.49,2A4,4,0,0,1,185,24.62,4,4,0,0,1,189,20.44a3.72,3.72,0,0,1,3.49,2l4.72-2.74a9.52,9.52,0,0,0-17.68,4.9A9.33,9.33,0,0,0,189.1,34.12Zm18.6,0a9.51,9.51,0,1,0-9.54-9.5A9.44,9.44,0,0,0,207.7,34.12Zm0-5.25a4,4,0,0,1-4.14-4.25,4.14,4.14,0,1,1,8.28,0A4,4,0,0,1,207.7,28.87Zm32.76-13.76a5.92,5.92,0,0,0-5.22,2.38,5.38,5.38,0,0,0-4.72-2.38,5.52,5.52,0,0,0-4.82,2.16V15.62h-5.4v18h5.4V23.47c0-2.13,1-3.39,2.8-3.39s2.6,1.15,2.6,3V33.62h5.4V23.47c0-2.13,1-3.39,2.8-3.39s2.6,1.15,2.6,3V33.62h5.4v-11C247.3,18.07,244.6,15.11,240.46,15.11Z"/><path class="cls-1" d="M22.63,8.12,8.62.68A6.11,6.11,0,0,0,8,.41L7.76.3a7.77,7.77,0,0,0-1-.24h-.1A5.9,5.9,0,0,0,4.17.25c-.23.07-.46.15-.68.24a3.18,3.18,0,0,0-.32.16A4.82,4.82,0,0,0,2.54,1l-.29.22c-.19.15-.37.31-.55.48A5.76,5.76,0,0,0,.8,2.88C.73,3,.68,3.1.62,3.21a6.07,6.07,0,0,0-.29.7A5.82,5.82,0,0,0,0,5.85V37.4a5.84,5.84,0,0,0,3.49,5.33,5.69,5.69,0,0,0,.69.25,5.65,5.65,0,0,0,2.2.23,4.53,4.53,0,0,0,.74-.09,6,6,0,0,0,1.5-.56l14-7.46Z"/><rect class="cls-2" x="4.39" y="10.12" width="13.96" height="2.38"/><rect class="cls-2" x="4.39" y="16.99" width="13.96" height="2.38"/><rect class="cls-3" x="4.39" y="23.86" width="13.96" height="2.38"/><rect class="cls-4" x="4.39" y="30.73" width="13.96" height="2.38"/><path class="cls-5" d="M22.63,35.1V29.53L12.45,19,7.19,43.1a6,6,0,0,0,1.43-.54Z"/><path class="cls-6" d="M36.64,15.63,22.29,8,20.48,7a3.35,3.35,0,0,1,1.81,3V33.21a3.37,3.37,0,0,1-1.81,3l1.81-1,14.35-7.63a6.79,6.79,0,0,0,0-12Z"/><path class="cls-7" d="M20.48,12.91l-4.93,2.63a6.89,6.89,0,0,0,0,12.16l4.93,2.63a3.41,3.41,0,0,1,1.83,3.05V9.86A3.41,3.41,0,0,1,20.48,12.91Z"/></g></g></svg>